<mxfile host="app.diagrams.net" modified="2023-01-08T06:49:19.233Z" agent="5.0 (Macintosh; Intel Mac OS X 10_15_7) AppleWebKit/537.36 (KHTML, like Gecko) Chrome/108.0.0.0 Safari/537.36" version="20.8.3" etag="Fy2GgUhbE6_sHXGUwnaN" type="github">
  <diagram id="38m4NykYHwkq5vOe_TnS">
    <mxGraphModel dx="830" dy="492" grid="0" gridSize="10" guides="1" tooltips="1" connect="1" arrows="1" fold="1" page="1" pageScale="1" pageWidth="827" pageHeight="1169" math="0" shadow="0">
      <root>
        <mxCell id="0" />
        <mxCell id="1" parent="0" />
        <mxCell id="oI4NQrld-B6rG6hM59TK-4" value="" style="verticalLabelPosition=bottom;verticalAlign=top;html=1;shape=hexagon;perimeter=hexagonPerimeter2;arcSize=6;size=0.25;rotation=30;" vertex="1" parent="1">
          <mxGeometry x="421.99999999999994" y="202.67999999999995" width="93" height="80" as="geometry" />
        </mxCell>
        <mxCell id="oI4NQrld-B6rG6hM59TK-5" value="" style="verticalLabelPosition=bottom;verticalAlign=top;html=1;shape=hexagon;perimeter=hexagonPerimeter2;arcSize=6;size=0.25;rotation=30;" vertex="1" parent="1">
          <mxGeometry x="462.99999999999994" y="271.99999999999994" width="93" height="80" as="geometry" />
        </mxCell>
        <mxCell id="oI4NQrld-B6rG6hM59TK-6" value="" style="verticalLabelPosition=bottom;verticalAlign=top;html=1;shape=hexagon;perimeter=hexagonPerimeter2;arcSize=6;size=0.25;rotation=30;" vertex="1" parent="1">
          <mxGeometry x="503" y="202.67999999999995" width="93" height="80" as="geometry" />
        </mxCell>
        <mxCell id="oI4NQrld-B6rG6hM59TK-7" value="" style="verticalLabelPosition=bottom;verticalAlign=top;html=1;shape=hexagon;perimeter=hexagonPerimeter2;arcSize=6;size=0.25;rotation=30;" vertex="1" parent="1">
          <mxGeometry x="463" y="133.99999999999994" width="93" height="80" as="geometry" />
        </mxCell>
        <mxCell id="oI4NQrld-B6rG6hM59TK-8" value="" style="shape=image;verticalLabelPosition=bottom;verticalAlign=top;imageAspect=0;image=https://cdn.discordapp.com/attachments/878496221998772225/1061518419993821224/magicut_1673156061437.png" vertex="1" parent="1">
          <mxGeometry x="420" y="195" width="102" height="101" as="geometry" />
        </mxCell>
        <mxCell id="oI4NQrld-B6rG6hM59TK-10" value="" style="shape=image;verticalLabelPosition=bottom;verticalAlign=top;imageAspect=0;image=https://cdn.discordapp.com/attachments/878496221998772225/1061524445459656734/magicut_1673157541126.png" vertex="1" parent="1">
          <mxGeometry x="468.5" y="70" width="82.5" height="151" as="geometry" />
        </mxCell>
        <mxCell id="oI4NQrld-B6rG6hM59TK-11" value="" style="shape=image;verticalLabelPosition=bottom;verticalAlign=top;imageAspect=0;image=https://cdn.discordapp.com/attachments/878496221998772225/1061520916720398516/magicut_1673156687559.png" vertex="1" parent="1">
          <mxGeometry x="506.75" y="182" width="87.25" height="109" as="geometry" />
        </mxCell>
        <mxCell id="oI4NQrld-B6rG6hM59TK-9" value="" style="shape=image;verticalLabelPosition=bottom;verticalAlign=top;imageAspect=0;image=https://cdn.discordapp.com/attachments/878496221998772225/1061527688256430130/magicut_1673158315589.png" vertex="1" parent="1">
          <mxGeometry x="468.5" y="143" width="89.5" height="214" as="geometry" />
        </mxCell>
      </root>
    </mxGraphModel>
  </diagram>
</mxfile>
